<svg width="100%" viewBox="0 0 1400 170" role="img" xmlns="http://www.w3.org/2000/svg">
<title>Tape background</title>
<desc>Black label tape with machine marks and edge shading</desc>
<polygon points="58.0,28 1342.0,28 1326.2,148 65.9,148" fill="#0d0d0d"/>
<line x1="65.00" y1="29.60" x2="1335.00" y2="29.60" stroke="#8b8b8b" stroke-width="1.4" opacity="0.62"/>
<line x1="65.00" y1="31.40" x2="1335.00" y2="31.40" stroke="#8b8b8b" stroke-width="1.4" opacity="0.30"/>
<line x1="1339.70" y1="34.76" x2="1325.73" y2="140.88" stroke="#050505" stroke-width="1.4" opacity="0.30"/>
<line x1="1338.11" y1="34.55" x2="1324.14" y2="140.67" stroke="#050505" stroke-width="1.4" opacity="0.16"/>
<line x1="1319.20" y1="146.60" x2="72.94" y2="146.60" stroke="#050505" stroke-width="1.4" opacity="0.30"/>
<line x1="1319.20" y1="145.00" x2="72.94" y2="145.00" stroke="#050505" stroke-width="1.4" opacity="0.16"/>
<line x1="67.08" y1="140.91" x2="60.06" y2="34.88" stroke="#8b8b8b" stroke-width="1.4" opacity="0.62"/>
<line x1="68.87" y1="140.79" x2="61.85" y2="34.76" stroke="#8b8b8b" stroke-width="1.4" opacity="0.30"/>
<line x1="230.66" y1="34.1" x2="230.66" y2="141.8" stroke="#666" stroke-width="1.73" opacity="0.63"/>
<line x1="230.33" y1="34.6" x2="230.33" y2="145.5" stroke="#5c5c5c" stroke-width="1.71" opacity="0.63"/>
<line x1="229.76" y1="99.6" x2="229.76" y2="147.1" stroke="#666" stroke-width="1.96" opacity="0.67"/>
<line x1="228.53" y1="57.6" x2="228.53" y2="147.9" stroke="#5c5c5c" stroke-width="2.02" opacity="0.53"/>
<line x1="228.98" y1="75.9" x2="228.98" y2="110.9" stroke="#666" stroke-width="1.79" opacity="0.62"/>
<line x1="228.65" y1="56.6" x2="228.65" y2="146.8" stroke="#555" stroke-width="1.40" opacity="0.65"/>
<line x1="229.30" y1="48.4" x2="229.30" y2="145.4" stroke="#555" stroke-width="2.14" opacity="0.60"/>
<line x1="228.85" y1="32.2" x2="228.85" y2="99.8" stroke="#707070" stroke-width="1.71" opacity="0.60"/>
<line x1="228.91" y1="30.9" x2="228.91" y2="136.3" stroke="#666" stroke-width="2.11" opacity="0.61"/>
<line x1="230.43" y1="89.1" x2="230.43" y2="119.6" stroke="#5c5c5c" stroke-width="2.11" opacity="0.60"/>
<line x1="228.28" y1="51.6" x2="228.28" y2="75.0" stroke="#707070" stroke-width="1.98" opacity="0.63"/>
<line x1="229.00" y1="84.5" x2="229.00" y2="113.5" stroke="#666" stroke-width="2.00" opacity="0.56"/>
<line x1="235.20" y1="59.0" x2="235.20" y2="134.9" stroke="#707070" stroke-width="1.87" opacity="0.67"/>
<line x1="235.12" y1="48.0" x2="235.12" y2="138.3" stroke="#5c5c5c" stroke-width="1.57" opacity="0.58"/>
<line x1="234.09" y1="28.9" x2="234.09" y2="104.2" stroke="#666" stroke-width="1.82" opacity="0.61"/>
<line x1="233.70" y1="38.5" x2="233.70" y2="113.8" stroke="#666" stroke-width="1.83" opacity="0.73"/>
<line x1="232.76" y1="60.0" x2="232.76" y2="95.5" stroke="#555" stroke-width="1.96" opacity="0.56"/>
<line x1="234.63" y1="41.4" x2="234.63" y2="128.4" stroke="#2e2e2e" stroke-width="1.55" opacity="0.70"/>
<line x1="233.79" y1="49.8" x2="233.79" y2="127.4" stroke="#666" stroke-width="1.86" opacity="0.63"/>
<line x1="234.96" y1="63.5" x2="234.96" y2="132.5" stroke="#555" stroke-width="1.98" opacity="0.64"/>
<line x1="233.67" y1="55.9" x2="233.67" y2="82.2" stroke="#707070" stroke-width="1.80" opacity="0.67"/>
<line x1="233.46" y1="34.7" x2="233.46" y2="137.6" stroke="#5c5c5c" stroke-width="2.24" opacity="0.62"/>
<line x1="233.79" y1="35.4" x2="233.79" y2="68.5" stroke="#707070" stroke-width="1.75" opacity="0.52"/>
<line x1="232.76" y1="67.4" x2="232.76" y2="102.2" stroke="#707070" stroke-width="1.62" opacity="0.70"/>
<line x1="235.58" y1="57.5" x2="235.58" y2="128.6" stroke="#5c5c5c" stroke-width="2.19" opacity="0.65"/>
<line x1="237.35" y1="62.6" x2="237.35" y2="90.5" stroke="#555" stroke-width="2.25" opacity="0.55"/>
<line x1="237.72" y1="68.4" x2="237.72" y2="111.6" stroke="#555" stroke-width="1.62" opacity="0.57"/>
<line x1="237.85" y1="46.7" x2="237.85" y2="133.8" stroke="#5c5c5c" stroke-width="1.95" opacity="0.67"/>
<line x1="236.66" y1="28.6" x2="236.66" y2="143.3" stroke="#707070" stroke-width="2.06" opacity="0.62"/>
<line x1="238.01" y1="63.3" x2="238.01" y2="103.3" stroke="#555" stroke-width="1.96" opacity="0.71"/>
<line x1="236.49" y1="54.2" x2="236.49" y2="118.9" stroke="#707070" stroke-width="1.85" opacity="0.66"/>
<line x1="237.15" y1="51.2" x2="237.15" y2="73.4" stroke="#666" stroke-width="1.81" opacity="0.68"/>
<line x1="237.37" y1="88.0" x2="237.37" y2="146.3" stroke="#707070" stroke-width="1.56" opacity="0.64"/>
<line x1="235.64" y1="44.1" x2="235.64" y2="100.9" stroke="#666" stroke-width="1.91" opacity="0.50"/>
<line x1="235.70" y1="65.2" x2="235.70" y2="133.0" stroke="#383838" stroke-width="1.87" opacity="0.62"/>
<line x1="541.45" y1="50.9" x2="541.45" y2="105.6" stroke="#343434" stroke-width="1.14" opacity="0.32"/>
<line x1="541.50" y1="98.9" x2="541.50" y2="119.1" stroke="#383838" stroke-width="1.19" opacity="0.30"/>
<line x1="539.46" y1="30.3" x2="539.46" y2="132.8" stroke="#323232" stroke-width="0.94" opacity="0.26"/>
<line x1="540.69" y1="34.4" x2="540.69" y2="145.6" stroke="#383838" stroke-width="0.75" opacity="0.37"/>
<line x1="539.67" y1="37.0" x2="539.67" y2="121.8" stroke="#5c5c5c" stroke-width="1.01" opacity="0.24"/>
<line x1="544.22" y1="33.5" x2="544.22" y2="86.7" stroke="#363636" stroke-width="0.89" opacity="0.42"/>
<line x1="544.20" y1="31.3" x2="544.20" y2="124.2" stroke="#707070" stroke-width="0.99" opacity="0.31"/>
<line x1="544.63" y1="35.8" x2="544.63" y2="143.1" stroke="#363636" stroke-width="1.23" opacity="0.19"/>
<line x1="543.47" y1="38.7" x2="543.47" y2="110.6" stroke="#383838" stroke-width="1.56" opacity="0.26"/>
<line x1="543.32" y1="34.1" x2="543.32" y2="105.9" stroke="#2e2e2e" stroke-width="0.73" opacity="0.33"/>
<line x1="541.90" y1="42.8" x2="541.90" y2="136.6" stroke="#5c5c5c" stroke-width="1.41" opacity="0.41"/>
<line x1="543.75" y1="82.1" x2="543.75" y2="135.8" stroke="#5c5c5c" stroke-width="1.36" opacity="0.21"/>
<line x1="542.12" y1="65.3" x2="542.12" y2="134.5" stroke="#666" stroke-width="1.13" opacity="0.24"/>
<line x1="543.25" y1="82.3" x2="543.25" y2="125.0" stroke="#383838" stroke-width="0.96" opacity="0.23"/>
<line x1="1175.83" y1="97.0" x2="1175.83" y2="135.8" stroke="#383838" stroke-width="0.76" opacity="0.26"/>
<line x1="1177.53" y1="44.6" x2="1177.53" y2="114.2" stroke="#323232" stroke-width="1.16" opacity="0.17"/>
<line x1="1176.25" y1="29.2" x2="1176.25" y2="127.8" stroke="#2e2e2e" stroke-width="0.76" opacity="0.31"/>
<line x1="1175.85" y1="48.2" x2="1175.85" y2="121.6" stroke="#707070" stroke-width="0.76" opacity="0.19"/>
<line x1="1178.27" y1="49.9" x2="1178.27" y2="136.2" stroke="#343434" stroke-width="0.85" opacity="0.22"/>
<line x1="1228.67" y1="44.1" x2="1228.67" y2="119.9" stroke="#666" stroke-width="1.60" opacity="0.71"/>
<line x1="1227.27" y1="80.5" x2="1227.27" y2="125.2" stroke="#707070" stroke-width="1.62" opacity="0.66"/>
<line x1="1226.39" y1="79.9" x2="1226.39" y2="140.4" stroke="#323232" stroke-width="1.72" opacity="0.58"/>
<line x1="1226.64" y1="61.6" x2="1226.64" y2="146.6" stroke="#555" stroke-width="2.14" opacity="0.59"/>
<line x1="1228.89" y1="31.9" x2="1228.89" y2="127.4" stroke="#707070" stroke-width="1.92" opacity="0.65"/>
<line x1="1227.98" y1="40.1" x2="1227.98" y2="122.8" stroke="#5c5c5c" stroke-width="1.79" opacity="0.69"/>
<line x1="1253.26" y1="52.9" x2="1253.26" y2="136.2" stroke="#5c5c5c" stroke-width="0.83" opacity="0.40"/>
<line x1="1253.92" y1="47.8" x2="1253.92" y2="107.3" stroke="#363636" stroke-width="0.93" opacity="0.41"/>
<line x1="1254.18" y1="35.0" x2="1254.18" y2="126.0" stroke="#383838" stroke-width="1.49" opacity="0.45"/>
<line x1="1253.09" y1="47.5" x2="1253.09" y2="75.3" stroke="#323232" stroke-width="1.25" opacity="0.35"/>
<line x1="1250.05" y1="37.5" x2="1250.05" y2="75.3" stroke="#383838" stroke-width="1.22" opacity="0.34"/>
<line x1="1250.57" y1="32.6" x2="1250.57" y2="144.2" stroke="#343434" stroke-width="1.14" opacity="0.34"/>
<line x1="1249.59" y1="34.8" x2="1249.59" y2="126.6" stroke="#363636" stroke-width="1.66" opacity="0.43"/>
<line x1="1251.00" y1="44.4" x2="1251.00" y2="109.7" stroke="#707070" stroke-width="1.14" opacity="0.28"/>
<line x1="1250.53" y1="33.4" x2="1250.53" y2="60.9" stroke="#666" stroke-width="1.28" opacity="0.35"/>
<line x1="1251.24" y1="44.5" x2="1251.24" y2="122.9" stroke="#323232" stroke-width="1.01" opacity="0.32"/>
<line x1="1248.87" y1="37.9" x2="1248.87" y2="75.0" stroke="#5c5c5c" stroke-width="1.34" opacity="0.21"/>
<line x1="1251.24" y1="48.2" x2="1251.24" y2="144.0" stroke="#343434" stroke-width="1.18" opacity="0.40"/>
<line x1="1250.74" y1="38.7" x2="1250.74" y2="96.4" stroke="#2e2e2e" stroke-width="1.19" opacity="0.46"/>
<line x1="1252.03" y1="48.9" x2="1252.03" y2="101.3" stroke="#707070" stroke-width="1.34" opacity="0.30"/>
<line x1="1252.24" y1="30.7" x2="1252.24" y2="76.3" stroke="#707070" stroke-width="1.14" opacity="0.30"/>
<line x1="1250.55" y1="30.5" x2="1250.55" y2="144.1" stroke="#343434" stroke-width="1.48" opacity="0.34"/>
<line x1="1251.66" y1="67.7" x2="1251.66" y2="133.8" stroke="#323232" stroke-width="1.45" opacity="0.28"/>
<line x1="1252.47" y1="120.9" x2="1252.47" y2="147.0" stroke="#343434" stroke-width="1.74" opacity="0.42"/>
<line x1="1294.45" y1="46.7" x2="1294.45" y2="141.4" stroke="#383838" stroke-width="1.10" opacity="0.17"/>
<line x1="1296.14" y1="54.1" x2="1296.14" y2="119.9" stroke="#343434" stroke-width="0.93" opacity="0.28"/>
<line x1="1295.34" y1="82.1" x2="1295.34" y2="133.2" stroke="#363636" stroke-width="1.00" opacity="0.09"/>
<line x1="1296.45" y1="62.7" x2="1296.45" y2="101.6" stroke="#383838" stroke-width="1.05" opacity="0.24"/>
<line x1="1295.51" y1="33.3" x2="1295.51" y2="87.3" stroke="#363636" stroke-width="0.96" opacity="0.29"/>
<line x1="1294.88" y1="36.7" x2="1294.88" y2="132.8" stroke="#2e2e2e" stroke-width="1.29" opacity="0.21"/>
<line x1="1294.87" y1="71.1" x2="1294.87" y2="143.3" stroke="#383838" stroke-width="0.96" opacity="0.09"/>
</svg>