<svg viewBox="0.0111 0.0111 69.8278 98.0500" class="glass-icon glass-icon--brandy"
     role="img" aria-hidden="true" focusable="false">
  <g transform="translate(-70.114592,-99.483335)">
    <path class="glass-icon-line" d="m 83.731809,166.01722 c -7.478871,-4.7625 -12.206102,-12.77054 -12.206102,-24.55333 0,-3.3161 0.493898,-6.52637 1.411102,-9.56027 l 9.172231,-31.00917 h 45.8611 l 9.17223,31.00917 c 0.91723,3.0339 1.41111,6.24417 1.41111,9.56027 0,11.78279 -4.72721,19.79083 -12.20611,24.55333 -5.78556,3.70417 -13.22916,5.4328 -21.30777,5.4328 -8.078624,0 -15.522226,-1.72863 -21.307791,-5.4328 z" />
    <path class="glass-icon-line" d="m 83.237938,165.69972 0.493871,0.3175 9.877796,6.63223 c 3.845268,2.54 6.138333,6.87917 6.138333,11.50057 0,2.8575 -2.046129,5.29166 -4.868333,5.78554 l -9.383898,1.65806 c -2.010833,0.59973 -3.386667,2.46944 -3.386667,4.55083 h 45.8611 c 0,-2.08139 -1.37583,-3.9511 -3.38666,-4.55083 l -9.38388,-1.65806 c -2.82223,-0.49388 -4.86833,-2.92804 -4.86833,-5.78554 0,-4.6214 2.29304,-8.96057 6.13833,-11.50057 l 9.87777,-6.63223 0.4939,-0.3175" />
  </g>
</svg>
