<svg width="100%" viewBox="0 0 1400 170" role="img" xmlns="http://www.w3.org/2000/svg">
<title>Tape background</title>
<desc>Black label tape with machine marks and edge shading</desc>
<polygon points="58.0,28 1342.0,28 1353.6,148 47.2,148" fill="#0d0d0d"/>
<line x1="65.00" y1="29.60" x2="1335.00" y2="29.60" stroke="#8b8b8b" stroke-width="1.4" opacity="0.62"/>
<line x1="65.00" y1="31.40" x2="1335.00" y2="31.40" stroke="#8b8b8b" stroke-width="1.4" opacity="0.30"/>
<line x1="1341.28" y1="35.10" x2="1351.52" y2="141.17" stroke="#050505" stroke-width="1.4" opacity="0.30"/>
<line x1="1339.69" y1="35.26" x2="1349.93" y2="141.32" stroke="#050505" stroke-width="1.4" opacity="0.16"/>
<line x1="1346.59" y1="146.60" x2="54.16" y2="146.60" stroke="#050505" stroke-width="1.4" opacity="0.30"/>
<line x1="1346.59" y1="145.00" x2="54.16" y2="145.00" stroke="#050505" stroke-width="1.4" opacity="0.16"/>
<line x1="49.38" y1="141.17" x2="58.96" y2="35.12" stroke="#8b8b8b" stroke-width="1.4" opacity="0.62"/>
<line x1="51.17" y1="141.33" x2="60.76" y2="35.28" stroke="#8b8b8b" stroke-width="1.4" opacity="0.30"/>
<line x1="152.50" y1="28.2" x2="152.50" y2="144.9" stroke="#707070" stroke-width="2.19" opacity="0.59"/>
<line x1="150.75" y1="72.0" x2="150.75" y2="125.2" stroke="#555" stroke-width="1.87" opacity="0.59"/>
<line x1="150.86" y1="55.0" x2="150.86" y2="135.5" stroke="#707070" stroke-width="1.88" opacity="0.67"/>
<line x1="149.92" y1="49.3" x2="149.92" y2="108.1" stroke="#5c5c5c" stroke-width="1.70" opacity="0.73"/>
<line x1="151.97" y1="47.7" x2="151.97" y2="124.4" stroke="#5c5c5c" stroke-width="1.75" opacity="0.71"/>
<line x1="150.90" y1="30.7" x2="150.90" y2="126.4" stroke="#5c5c5c" stroke-width="1.92" opacity="0.66"/>
<line x1="151.80" y1="40.7" x2="151.80" y2="145.6" stroke="#5c5c5c" stroke-width="1.58" opacity="0.76"/>
<line x1="446.13" y1="58.4" x2="446.13" y2="118.4" stroke="#383838" stroke-width="1.89" opacity="0.42"/>
<line x1="445.94" y1="36.4" x2="445.94" y2="130.0" stroke="#363636" stroke-width="1.40" opacity="0.47"/>
<line x1="446.55" y1="73.8" x2="446.55" y2="120.3" stroke="#383838" stroke-width="0.87" opacity="0.44"/>
<line x1="447.35" y1="72.4" x2="447.35" y2="123.7" stroke="#2e2e2e" stroke-width="1.76" opacity="0.34"/>
<line x1="447.14" y1="56.7" x2="447.14" y2="136.9" stroke="#555" stroke-width="1.53" opacity="0.43"/>
<line x1="446.42" y1="43.5" x2="446.42" y2="81.3" stroke="#2e2e2e" stroke-width="1.41" opacity="0.46"/>
<line x1="446.42" y1="29.9" x2="446.42" y2="147.1" stroke="#555" stroke-width="1.46" opacity="0.59"/>
<line x1="766.83" y1="73.1" x2="766.83" y2="112.0" stroke="#5c5c5c" stroke-width="1.00" opacity="0.28"/>
<line x1="767.56" y1="32.2" x2="767.56" y2="146.6" stroke="#707070" stroke-width="1.14" opacity="0.32"/>
<line x1="766.91" y1="36.9" x2="766.91" y2="87.5" stroke="#383838" stroke-width="1.35" opacity="0.28"/>
<line x1="966.05" y1="32.8" x2="966.05" y2="134.2" stroke="#5c5c5c" stroke-width="1.50" opacity="0.39"/>
<line x1="966.09" y1="63.9" x2="966.09" y2="127.7" stroke="#707070" stroke-width="1.31" opacity="0.35"/>
<line x1="965.16" y1="34.8" x2="965.16" y2="126.1" stroke="#343434" stroke-width="1.00" opacity="0.26"/>
<line x1="969.23" y1="85.3" x2="969.23" y2="130.1" stroke="#555" stroke-width="1.48" opacity="0.34"/>
<line x1="967.04" y1="31.4" x2="967.04" y2="146.1" stroke="#2e2e2e" stroke-width="1.21" opacity="0.41"/>
<line x1="968.95" y1="32.5" x2="968.95" y2="117.5" stroke="#2e2e2e" stroke-width="1.68" opacity="0.44"/>
<line x1="968.93" y1="68.9" x2="968.93" y2="136.4" stroke="#363636" stroke-width="0.97" opacity="0.44"/>
<line x1="967.47" y1="47.8" x2="967.47" y2="104.1" stroke="#383838" stroke-width="1.38" opacity="0.27"/>
<line x1="1203.09" y1="56.8" x2="1203.09" y2="111.5" stroke="#666" stroke-width="1.27" opacity="0.15"/>
<line x1="1201.58" y1="37.6" x2="1201.58" y2="103.0" stroke="#666" stroke-width="1.04" opacity="0.07"/>
<line x1="1203.05" y1="36.9" x2="1203.05" y2="96.2" stroke="#383838" stroke-width="0.74" opacity="0.25"/>
<line x1="1203.17" y1="34.6" x2="1203.17" y2="142.2" stroke="#383838" stroke-width="1.06" opacity="0.11"/>
<line x1="1201.87" y1="44.0" x2="1201.87" y2="112.5" stroke="#383838" stroke-width="0.80" opacity="0.09"/>
<line x1="1202.98" y1="42.3" x2="1202.98" y2="127.8" stroke="#2e2e2e" stroke-width="0.88" opacity="0.22"/>
<line x1="1210.11" y1="65.2" x2="1210.11" y2="102.6" stroke="#343434" stroke-width="0.72" opacity="0.20"/>
<line x1="1210.44" y1="36.0" x2="1210.44" y2="88.9" stroke="#363636" stroke-width="0.90" opacity="0.24"/>
<line x1="1209.65" y1="30.8" x2="1209.65" y2="147.1" stroke="#363636" stroke-width="0.81" opacity="0.27"/>
<line x1="1208.93" y1="36.4" x2="1208.93" y2="83.2" stroke="#707070" stroke-width="0.41" opacity="0.21"/>
<line x1="1208.18" y1="47.1" x2="1208.18" y2="106.7" stroke="#363636" stroke-width="0.73" opacity="0.24"/>
<line x1="1268.22" y1="51.0" x2="1268.22" y2="122.0" stroke="#707070" stroke-width="1.73" opacity="0.61"/>
<line x1="1266.88" y1="47.7" x2="1266.88" y2="108.7" stroke="#666" stroke-width="2.31" opacity="0.67"/>
<line x1="1268.54" y1="72.5" x2="1268.54" y2="137.0" stroke="#555" stroke-width="2.10" opacity="0.53"/>
<line x1="1268.68" y1="72.4" x2="1268.68" y2="131.7" stroke="#5c5c5c" stroke-width="1.70" opacity="0.62"/>
<line x1="1267.93" y1="38.1" x2="1267.93" y2="97.1" stroke="#666" stroke-width="1.68" opacity="0.55"/>
<line x1="1267.98" y1="34.6" x2="1267.98" y2="101.4" stroke="#707070" stroke-width="1.61" opacity="0.52"/>
<line x1="1268.73" y1="81.4" x2="1268.73" y2="130.6" stroke="#555" stroke-width="2.24" opacity="0.50"/>
<line x1="1266.51" y1="30.7" x2="1266.51" y2="55.5" stroke="#555" stroke-width="1.91" opacity="0.61"/>
<line x1="1267.90" y1="57.4" x2="1267.90" y2="136.2" stroke="#5c5c5c" stroke-width="1.29" opacity="0.59"/>
<line x1="1267.21" y1="36.1" x2="1267.21" y2="134.0" stroke="#323232" stroke-width="1.41" opacity="0.66"/>
<line x1="1268.02" y1="43.1" x2="1268.02" y2="110.7" stroke="#666" stroke-width="1.45" opacity="0.50"/>
<line x1="1267.56" y1="33.5" x2="1267.56" y2="116.1" stroke="#666" stroke-width="1.75" opacity="0.55"/>
<line x1="1268.74" y1="37.0" x2="1268.74" y2="68.2" stroke="#555" stroke-width="2.03" opacity="0.61"/>
<line x1="1268.01" y1="53.0" x2="1268.01" y2="106.8" stroke="#707070" stroke-width="1.81" opacity="0.59"/>
<line x1="1266.61" y1="85.8" x2="1266.61" y2="131.0" stroke="#666" stroke-width="1.88" opacity="0.62"/>
</svg>