<?xml version="1.0" encoding="UTF-8" standalone="no"?>
<!-- Created with Inkscape (http://www.inkscape.org/) -->

<svg
   width="55.738831mm"
   height="76.905563mm"
   viewBox="0 0 55.738831 76.905563"
   version="1.1"
   id="svg1"
   inkscape:version="1.4.4 (dcaf3e7, 2026-05-05)"
   sodipodi:docname="glass-shot.svg"
   xmlns:inkscape="http://www.inkscape.org/namespaces/inkscape"
   xmlns:sodipodi="http://sodipodi.sourceforge.net/DTD/sodipodi-0.dtd"
   xmlns="http://www.w3.org/2000/svg"
   xmlns:svg="http://www.w3.org/2000/svg">
  <sodipodi:namedview
     id="namedview1"
     pagecolor="#ffffff"
     bordercolor="#000000"
     borderopacity="0.25"
     inkscape:showpageshadow="2"
     inkscape:pageopacity="0.0"
     inkscape:pagecheckerboard="0"
     inkscape:deskcolor="#d1d1d1"
     inkscape:document-units="mm"
     inkscape:zoom="0.79285915"
     inkscape:cx="105.31505"
     inkscape:cy="145.04468"
     inkscape:window-width="1920"
     inkscape:window-height="1112"
     inkscape:window-x="-8"
     inkscape:window-y="-8"
     inkscape:window-maximized="1"
     inkscape:current-layer="layer1" />
  <defs
     id="defs1" />
  <g
     inkscape:label="Layer 1"
     inkscape:groupmode="layer"
     id="layer1"
     transform="translate(-76.993642,-110.06667)">
    <path
       id="path18"
       d="m 121.97279,167.71056 c -0.59973,5.2564 -1.02307,10.19529 -1.16417,14.4639 -0.0706,1.86973 -1.62279,3.38666 -3.52779,3.38666 H 92.445289 c -1.905,0 -3.457231,-1.51693 -3.527795,-3.38666 -0.141102,-4.26861 -0.564436,-9.2075 -1.164167,-14.4639"
       style="fill:none;stroke:#4c4c4e;stroke-width:2.82223;stroke-linecap:round;stroke-linejoin:round;stroke-miterlimit:10;stroke-dasharray:none;stroke-opacity:1" />
    <path
       id="path19"
       d="m 87.647494,166.86389 c -2.8575,-24.55333 -9.242769,-55.3861 -9.242769,-55.3861 h 52.916665 c 0,0 -6.38527,30.83277 -9.24277,55.3861"
       style="fill:none;stroke:#4c4c4e;stroke-width:2.82223;stroke-linecap:round;stroke-linejoin:round;stroke-miterlimit:10;stroke-dasharray:none;stroke-opacity:1" />
    <path
       id="path20"
       d="m 122.07862,166.86389 c -0.0353,0.28223 -0.0706,0.56446 -0.10583,0.84667 -0.84667,4.19806 -4.51557,7.26723 -8.85473,7.26723 H 96.608058 c -4.339166,0 -8.008064,-3.06917 -8.854731,-7.26723 -0.03527,-0.28221 -0.07054,-0.56444 -0.105833,-0.84667"
       style="fill:none;stroke:#4c4c4e;stroke-width:2.82223;stroke-linecap:round;stroke-linejoin:round;stroke-miterlimit:10;stroke-dasharray:none;stroke-opacity:1" />
  </g>
</svg>
